HIERARCHY
ROOT root
{
	OFFSET 0.000000 0.000000 0.000000
	CHANNELS 6 Xposition Yposition Zposition Zrotation Yrotation Xrotation
	JOINT lhip
	{
		OFFSET 0.058581 -0.082280 -0.017664
		CHANNELS 3 Zrotation Yrotation Xrotation
		JOINT lknee
		{
			OFFSET 0.043451 -0.386469 0.008037
			CHANNELS 3 Zrotation Yrotation Xrotation
			JOINT lankle
			{
				OFFSET -0.014790 -0.426874 -0.037428
				CHANNELS 3 Zrotation Yrotation Xrotation
				JOINT ltoe
				{
					OFFSET 0.041054 -0.060286 0.122042
					CHANNELS 3 Zrotation Yrotation Xrotation
					End Site
					{
						OFFSET 0.000000 0.000000 0.000000
					}
				}
			}
		}
	}
	JOINT rhip
	{
		OFFSET -0.060310 -0.090513 -0.013543
		CHANNELS 3 Zrotation Yrotation Xrotation
		JOINT rknee
		{
			OFFSET -0.043257 -0.383688 -0.004843
			CHANNELS 3 Zrotation Yrotation Xrotation
			JOINT rankle
			{
				OFFSET 0.019056 -0.420046 -0.034562
				CHANNELS 3 Zrotation Yrotation Xrotation
				JOINT rtoe
				{
					OFFSET -0.034840 -0.062106 0.130323
					CHANNELS 3 Zrotation Yrotation Xrotation
					End Site
					{
						OFFSET 0.000000 0.000000 0.000000
					}
				}
			}
		}
	}
	JOINT lowerback
	{
		OFFSET 0.004439 0.124404 -0.038385
		CHANNELS 3 Zrotation Yrotation Xrotation
		JOINT upperback
		{
			OFFSET 0.004488 0.137956 0.026820
			CHANNELS 3 Zrotation Yrotation Xrotation
			JOINT chest
			{
				OFFSET -0.002265 0.056032 0.002855
				CHANNELS 3 Zrotation Yrotation Xrotation
				JOINT lowerneck
				{
					OFFSET -0.013390 0.211636 -0.033468
					CHANNELS 3 Zrotation Yrotation Xrotation
					JOINT upperneck
					{
						OFFSET 0.010113 0.088937 0.050410
						CHANNELS 3 Zrotation Yrotation Xrotation
						End Site
						{
							OFFSET 0.000000 0.000000 0.000000
						}
					}
				}
				JOINT lclavicle
				{
					OFFSET 0.071702 0.114000 -0.018898
					CHANNELS 3 Zrotation Yrotation Xrotation
					JOINT lshoulder
					{
						OFFSET 0.122921 0.045205 -0.019046
						CHANNELS 3 Zrotation Yrotation Xrotation
						JOINT lelbow
						{
							OFFSET 0.255332 -0.015649 -0.022946
							CHANNELS 3 Zrotation Yrotation Xrotation
							JOINT lwrist
							{
								OFFSET 0.265709 0.012698 -0.007375
								CHANNELS 3 Zrotation Yrotation Xrotation
								End Site
								{
									OFFSET 0.000000 0.000000 0.000000
								}
							}
						}
					}
				}
				JOINT rclavicle
				{
					OFFSET -0.082954 0.112472 -0.023707
					CHANNELS 3 Zrotation Yrotation Xrotation
					JOINT rshoulder
					{
						OFFSET -0.113228 0.046853 -0.008472
						CHANNELS 3 Zrotation Yrotation Xrotation
						JOINT relbow
						{
							OFFSET -0.260127 -0.014369 -0.031269
							CHANNELS 3 Zrotation Yrotation Xrotation
							JOINT rwrist
							{
								OFFSET -0.269108 0.006794 -0.006027
								CHANNELS 3 Zrotation Yrotation Xrotation
								End Site
								{
									OFFSET 0.000000 0.000000 0.000000
								}
							}
						}
					}
				}
			}
		}
	}
}
MOTION
Frames: 15
Frame Time: 0.033333
-0.105743 0.899452 1.021683 -1.373496 0.737621 85.833950 1.289611 0.641262 6.793821 -2.487967 -6.671398 8.762290 2.924450 10.919506 -15.192507 0.000000 -0.000000 0.000000 1.978396 -2.693082 5.951037 2.511555 1.441316 3.049055 3.824418 -2.625064 -7.523018 0.000000 -0.000000 0.000000 2.331216 0.326800 6.439272 -0.340156 -2.371485 1.913186 -0.441535 -1.525543 3.487651 1.789770 4.882705 -3.503053 0.284581 2.592813 2.902421 -28.758963 0.392190 0.993318 -58.332276 -6.371979 9.299184 9.963495 -31.180225 5.743520 0.069288 -4.146351 -3.143311 26.471112 2.193858 2.302537 59.384012 3.810132 13.978837 -16.212262 31.378581 -1.802115 4.870424 2.596375 -4.213140 
-0.110484 0.897667 1.021563 -1.041279 0.310185 85.713615 1.370815 0.162799 4.738202 -3.548309 -5.496134 13.118174 2.950854 10.854112 -15.756674 0.000000 -0.000000 0.000000 1.661191 -3.022561 6.676952 2.738279 1.686909 2.295842 3.652570 -2.839445 -7.587318 0.000000 -0.000000 0.000000 2.508875 0.912745 6.730185 -0.272680 -2.527464 1.999111 -0.450451 -1.670494 3.685720 1.497866 4.612466 -4.252800 0.155164 2.600728 3.019198 -28.890875 0.372305 1.009408 -58.367935 -6.259291 9.284272 9.965702 -30.995198 5.655351 0.412010 -4.011528 -3.100145 26.189869 2.270205 2.151209 58.205533 4.035531 13.952518 -16.328049 32.853422 -2.085077 4.293083 2.645043 -4.020445 
-0.114961 0.895902 1.021996 -0.870688 -0.075152 85.380835 1.494997 -0.236503 2.438638 -4.470635 -3.528867 18.300917 2.673172 10.964905 -15.896872 0.000000 -0.000000 0.000000 1.522090 -3.376156 7.303099 2.677428 1.800833 2.146070 3.304903 -2.807404 -7.688105 0.000000 -0.000000 0.000000 2.738859 1.495882 7.562784 -0.272701 -2.564170 1.765400 -0.478902 -1.577028 3.861093 1.300883 4.180405 -4.687762 0.200695 2.675018 2.971599 -28.954838 0.477603 0.809465 -58.284237 -5.875499 9.086798 9.635680 -31.381288 6.133264 0.594102 -3.793297 -2.872805 25.928347 2.155785 2.060614 56.963680 4.118344 13.730480 -16.497400 34.794477 -2.263909 3.932346 2.876503 -3.791374 
-0.119882 0.892471 1.022167 -0.720271 -0.449026 84.577769 1.712846 -0.513504 -0.132183 -4.950186 -0.652889 24.525515 2.136261 11.190578 -15.214401 0.000000 -0.000000 0.000000 1.384840 -3.672359 8.460282 2.632352 2.007679 2.095822 2.626191 -2.732615 -8.035694 0.000000 -0.000000 0.000000 3.181071 2.093024 8.715422 -0.285313 -2.572844 1.919142 -0.592810 -1.449645 4.060014 1.142347 3.682888 -5.108885 0.175695 2.610035 2.925493 -29.153828 0.531314 0.817883 -57.893972 -5.344418 8.861072 9.485970 -32.443676 6.367849 0.890867 -3.839368 -2.870718 25.526114 2.177286 2.047576 55.633640 4.366963 13.343680 -17.225680 37.264664 -3.179156 3.297176 3.292373 -3.812151 
-0.122668 0.889688 1.022238 -0.656537 -0.619196 83.994685 1.867144 -0.378233 -1.403323 -4.748025 0.947132 27.512426 1.793992 11.349691 -14.703244 0.000000 -0.000000 0.000000 1.314049 -3.944569 9.348736 2.585051 2.195399 1.944839 2.368676 -2.576407 -8.254970 0.000000 -0.000000 0.000000 3.372273 2.388936 9.468503 -0.284547 -2.575905 2.032688 -0.624647 -1.362047 4.232876 1.203777 3.276183 -5.256172 0.191213 2.659468 2.896102 -29.158692 0.652838 0.780067 -57.753154 -5.044903 8.638539 9.244398 -33.174498 6.577769 1.319961 -3.767797 -2.917490 25.284235 2.171550 1.920940 54.890761 4.635702 13.077105 -17.528289 38.707963 -3.668375 2.558637 3.464037 -3.712479 
-0.126513 0.886108 1.022391 -0.564880 -0.842203 83.438547 2.062376 -0.044247 -3.095586 -4.074484 2.810610 30.253200 1.737839 11.631739 -14.734233 0.000000 -0.000000 0.000000 1.259073 -4.466642 10.178478 2.418036 2.449558 1.914287 2.134690 -2.305805 -8.469838 0.000000 -0.000000 0.000000 3.471962 2.803006 10.417064 -0.249483 -2.622476 1.897574 -0.592496 -1.260741 4.319666 1.265247 2.968611 -5.210807 0.356940 2.754409 3.063285 -29.073827 0.940396 0.773162 -57.641885 -4.599081 8.377646 9.004091 -33.831248 6.694887 1.650252 -3.759007 -3.053424 25.076414 2.112413 1.826130 53.954405 4.916153 12.768661 -18.023862 40.519425 -4.595146 2.027795 3.706830 -3.721748 
-0.130205 0.882285 1.022369 -0.524444 -1.075342 83.227684 2.181565 0.055307 -4.997708 -3.459236 4.153197 31.737728 1.785945 11.930745 -14.497284 0.000000 -0.000000 0.000000 1.201323 -4.899623 10.525969 2.275276 2.768134 2.115594 2.067518 -2.080649 -9.030195 0.000000 -0.000000 0.000000 3.462221 3.380884 10.884575 -0.156328 -2.745157 1.780130 -0.538763 -1.319531 4.432568 1.399028 2.871894 -4.967594 0.346726 2.648184 3.380211 -29.135385 1.224078 1.131993 -57.356417 -4.255462 8.287141 8.945679 -34.174679 6.762572 1.860310 -3.500647 -2.830832 24.917435 2.027133 1.617084 53.248298 5.184592 12.720829 -18.899756 42.130588 -5.514459 1.490425 4.034540 -3.760203 
-0.133792 0.876701 1.023295 -0.789378 -1.300468 82.126242 2.431380 -0.439885 -5.149568 -3.394288 5.450281 31.152677 0.191958 11.494727 -14.466933 0.000000 -0.000000 0.000000 1.362226 -4.437889 12.336986 1.756883 2.286810 1.537606 2.397855 -1.810287 -9.245540 0.000000 -0.000000 0.000000 3.332386 4.483290 11.331644 0.453866 -3.541805 4.043246 -0.621960 -1.047258 3.422744 1.408105 3.094006 -4.327334 0.283217 2.432469 2.569795 -29.294799 0.186415 2.144940 -57.655529 -3.845139 9.379672 10.837227 -33.784523 4.194360 7.931811 -5.340769 -4.946370 25.116454 2.764029 1.332587 53.012469 4.969770 12.206837 -22.006466 43.339287 -7.339432 -0.166677 6.186584 -1.460821 
-0.136068 0.872466 1.023492 -0.787078 -1.601931 82.095665 2.291797 -1.040822 -6.478966 -3.622764 5.516544 30.049349 -0.228366 11.439796 -14.040629 0.000000 -0.000000 0.000000 1.156856 -4.390280 12.651476 1.728840 2.249207 1.491358 2.333193 -1.822071 -9.438139 0.000000 -0.000000 0.000000 3.244702 4.951900 11.744964 0.510627 -3.833642 4.081805 -0.514156 -0.985591 3.167899 1.159891 2.998327 -3.946150 0.313329 2.503436 2.427007 -29.226597 0.023320 2.167989 -57.940210 -3.082454 8.988060 10.908069 -33.881824 3.695183 9.393633 -4.998593 -6.249812 24.846660 2.698756 1.230861 52.981239 5.102816 11.972419 -22.806682 44.890723 -7.686621 -0.977675 6.390916 -2.443476 
-0.139268 0.865192 1.023185 -0.739527 -1.841384 81.939188 2.232716 -1.213902 -8.151254 -3.631875 5.224999 27.445056 -0.564902 10.721063 -13.261648 0.000000 -0.000000 0.000000 0.861233 -4.782090 13.472475 1.842416 2.573330 1.038687 2.570471 -1.762396 -9.616719 0.000000 -0.000000 0.000000 3.352716 5.334656 12.115527 0.427211 -3.787730 4.155281 -0.643057 -0.934199 3.230919 1.313582 3.271075 -3.853373 0.555666 1.986552 2.970954 -28.830357 -0.078736 2.173929 -58.275552 -2.570860 8.736744 11.244238 -33.612864 3.065378 8.201136 -4.779183 -5.454733 24.860522 2.991454 1.378972 52.953390 5.384459 11.137528 -23.947599 46.530820 -9.259926 -1.079065 6.414511 -2.354906 
-0.141758 0.860569 1.022523 -1.067538 -2.071838 82.099510 2.145250 -1.106159 -9.320884 -3.367423 5.327748 23.141356 -0.931482 10.130276 -11.929681 0.000000 -0.000000 0.000000 0.535903 -5.195591 13.917442 1.831957 2.747147 0.870496 2.734132 -1.110310 -9.931044 0.000000 -0.000000 0.000000 3.379388 5.767757 12.672137 0.309324 -3.696412 3.773056 -0.731042 -0.614948 3.338514 1.600540 3.544857 -3.914647 0.547182 1.398391 3.850357 -28.359830 0.460897 1.585879 -58.554650 -2.269770 9.729986 11.214374 -32.880577 2.888394 7.828053 -4.795007 -5.981169 24.736957 2.742821 1.290460 53.296488 6.017729 11.712329 -25.561560 47.642309 -11.342647 -0.334403 6.415378 -3.125048 
-0.143563 0.854338 1.021995 -1.433733 -2.177429 82.144176 2.028282 -0.961198 -10.289599 -3.036507 5.269617 19.960281 -0.990645 9.848407 -11.229506 0.000000 -0.000000 0.000000 0.393047 -5.356508 14.329493 1.820642 2.957510 0.666470 2.731765 -0.815180 -10.040390 0.000000 -0.000000 0.000000 3.359644 5.967533 12.877662 0.253259 -3.596560 3.835814 -0.645997 -0.397870 3.264754 1.631745 3.630043 -3.442675 0.485044 1.316211 4.069930 -28.544612 0.631758 1.533219 -58.523207 -1.913057 9.428415 11.204506 -32.857122 3.219244 7.424168 -4.707006 -5.889169 24.718220 2.806620 1.449728 53.382401 6.447081 11.622908 -25.957241 48.449006 -11.541723 -0.476861 6.607970 -3.261875 
-0.144995 0.848215 1.021327 -1.654516 -2.205182 82.371056 1.916858 -0.915637 -11.104922 -2.860130 4.940468 16.333311 -1.009858 9.730388 -10.506283 0.000000 -0.000000 0.000000 0.311313 -5.521678 14.762484 1.845988 3.263399 0.127904 2.737352 -0.689839 -10.129933 0.000000 -0.000000 0.000000 3.329465 6.135137 12.944670 0.237316 -3.643311 3.823085 -0.498330 -0.232359 3.132665 1.528646 3.569863 -2.777967 0.610220 1.265902 4.403598 -28.704082 0.512234 1.758357 -58.646287 -1.425206 9.120444 11.414071 -32.776071 3.035312 7.864230 -4.477348 -6.072593 24.627919 2.970653 1.735993 53.427976 6.741974 11.591658 -25.931397 49.072472 -10.785773 -0.999489 6.897959 -3.315573 
-0.146362 0.840819 1.019972 -1.794455 -2.105770 82.613171 1.845847 -0.640464 -12.353901 -2.754707 4.708981 13.038233 -1.144999 8.929404 -9.898462 0.000000 -0.000000 0.000000 0.282653 -6.023490 15.134760 1.842559 3.528445 -0.111255 2.874643 -0.206305 -10.396796 0.000000 -0.000000 0.000000 3.409293 6.145367 13.008173 0.266595 -3.664977 3.698411 -0.604926 -0.031964 3.145542 1.843605 3.777568 -2.214081 0.707398 0.897888 5.398077 -28.267604 0.759080 1.312404 -59.337691 -1.007322 9.529059 11.605863 -32.389707 2.776580 7.206032 -4.379482 -6.019719 24.708839 2.970096 1.765880 53.781953 7.052539 11.561650 -25.726509 49.591704 -10.468352 -0.763215 7.088129 -2.710361 
-0.147287 0.833621 1.018387 -2.115048 -2.068225 82.778431 1.709569 -0.470382 -13.438765 -2.842208 4.558753 10.025631 -1.483316 8.084583 -8.794151 0.000000 -0.000000 0.000000 0.223849 -6.179725 15.567863 1.838752 3.771320 -0.075035 2.903734 0.105385 -10.851740 0.000000 -0.000000 0.000000 3.421859 6.159791 13.329533 0.243493 -3.618973 3.511693 -0.705116 0.100948 3.050829 2.079555 4.023536 -1.842962 0.861306 0.583128 6.293436 -27.996064 0.990134 1.127117 -59.786369 -0.560406 9.682834 11.715665 -32.355763 2.569210 6.747999 -4.264850 -5.736801 24.889166 2.984889 1.827036 54.237888 7.249851 11.595808 -25.540095 50.042488 -10.089696 -0.658394 7.384381 -2.289494 
